<?xml version="1.0" standalone="no"?>
<!DOCTYPE svg PUBLIC "-//W3C//DTD SVG 20010904//EN"
 "http://www.w3.org/TR/2001/REC-SVG-20010904/DTD/svg10.dtd">
<svg version="1.0" xmlns="http://www.w3.org/2000/svg"
 width="512.000000pt" height="512.000000pt" viewBox="0 0 512.000000 512.000000"
 preserveAspectRatio="xMidYMid meet">
<metadata>
Created by potrace 1.14, written by Peter Selinger 2001-2017
</metadata>
<g transform="translate(0.000000,512.000000) scale(0.100000,-0.100000)"
fill="#000000" stroke="none">
<path d="M1771 5105 c-368 -84 -641 -338 -730 -680 -29 -109 -34 -170 -35
-462 l-1 -258 -195 -1 c-230 -2 -217 -1 -217 -16 0 -17 -12 -100 -23 -168 -5
-30 -11 -73 -14 -95 -3 -22 -12 -89 -21 -150 -9 -60 -18 -126 -21 -145 -2 -20
-6 -45 -8 -56 -2 -12 -7 -45 -11 -74 -4 -29 -8 -62 -11 -73 -2 -11 -6 -41 -9
-66 -3 -25 -7 -57 -10 -71 -3 -14 -7 -43 -10 -65 -2 -22 -18 -134 -35 -250
-32 -220 -32 -223 -55 -375 -8 -52 -17 -115 -20 -140 -3 -25 -7 -56 -10 -70
-2 -14 -7 -45 -11 -70 -3 -25 -8 -56 -10 -70 -2 -14 -6 -47 -9 -75 -3 -27 -7
-57 -10 -65 -2 -8 -7 -40 -10 -70 -3 -30 -8 -62 -10 -70 -2 -8 -7 -40 -10 -70
-4 -30 -8 -57 -10 -60 -2 -3 -6 -34 -10 -70 -4 -36 -8 -72 -10 -80 -4 -19 -23
-150 -30 -210 -5 -40 -19 -131 -30 -200 -2 -14 -6 -45 -10 -70 -7 -52 -35
-244 -41 -280 -32 -191 -13 -275 81 -358 89 -79 -124 -72 2374 -69 l2236 2 42
23 c117 62 174 184 152 325 -5 29 -11 70 -14 92 -3 22 -8 51 -10 65 -2 14 -7
45 -10 70 -7 48 -14 100 -20 140 -7 45 -76 524 -81 560 -2 19 -6 49 -9 65 -3
17 -7 47 -10 67 -3 21 -7 55 -10 75 -3 21 -14 99 -25 173 -11 74 -22 151 -25
170 -3 19 -28 193 -55 385 -28 193 -53 364 -56 380 -13 87 -85 596 -90 639 -4
28 -8 54 -10 57 -2 3 -6 30 -9 60 -4 30 -16 122 -28 204 l-22 150 -220 1 -220
2 -1 238 c-1 132 -5 276 -8 322 -31 386 -317 721 -703 823 -83 22 -293 31
-383 17 -134 -22 -262 -74 -378 -154 -35 -24 -65 -44 -68 -44 -3 0 -26 16 -52
36 -68 52 -215 121 -307 145 -107 27 -324 35 -414 14z m333 -349 c64 -19 156
-63 195 -94 l23 -19 -20 -45 c-86 -187 -94 -238 -97 -588 -2 -162 -3 -297 -4
-300 0 -3 -192 -5 -426 -6 l-425 0 0 267 c0 146 4 291 10 320 36 198 176 366
368 444 34 14 79 28 99 31 21 3 40 7 41 9 10 10 186 -5 236 -19z m1211 -5
c180 -53 321 -190 393 -379 25 -66 26 -74 30 -367 l4 -300 -420 0 c-231 0
-423 3 -427 6 -3 4 -8 141 -9 305 -3 283 -4 304 -29 395 -14 52 -39 126 -57
164 l-32 69 23 19 c42 33 139 78 213 97 91 24 215 20 311 -9z"/>
</g>
</svg>
